<?xml version="1.0" standalone="no"?>
<!DOCTYPE svg PUBLIC "-//W3C//DTD SVG 20010904//EN"
 "http://www.w3.org/TR/2001/REC-SVG-20010904/DTD/svg10.dtd">
<svg version="1.0" xmlns="http://www.w3.org/2000/svg"
 width="350.000000pt" height="507.000000pt" viewBox="0 0 350.000000 507.000000"
 preserveAspectRatio="xMidYMid meet">

<g transform="translate(0.000000,507.000000) scale(0.100000,-0.100000)"
fill="#000000" stroke="none">
<path d="M0 2535 l0 -2535 1750 0 1750 0 0 2535 0 2535 -1750 0 -1750 0 0
-2535z m1605 1995 c0 -7 -6 -15 -12 -17 -8 -3 -13 4 -13 17 0 13 5 20 13 18 6
-3 12 -11 12 -18z m305 -20 c0 -5 -2 -10 -4 -10 -3 0 -8 5 -11 10 -3 6 -1 10
4 10 6 0 11 -4 11 -10z m-10 -44 c0 -3 -4 -8 -10 -11 -5 -3 -10 -1 -10 4 0 6
5 11 10 11 6 0 10 -2 10 -4z m-449 -97 c-15 -6 -21 -14 -17 -24 3 -9 -3 -24
-14 -35 -11 -11 -20 -26 -21 -32 0 -9 -2 -9 -5 -2 -4 9 -14 8 -37 -3 -43 -21
-64 -40 -99 -91 -29 -42 -29 -44 -11 -57 17 -13 16 -14 -12 -12 -24 2 -30 -2
-31 -21 -1 -23 -30 -62 -46 -62 -6 0 -30 -14 -54 -32 -51 -37 -80 -84 -63
-104 15 -19 -8 -87 -27 -80 -9 3 -14 -2 -14 -14 0 -11 5 -20 11 -20 5 0 7 -5
3 -12 -6 -9 -9 -9 -12 0 -3 10 -7 10 -18 1 -8 -6 -11 -15 -8 -20 3 -5 1 -9 -4
-9 -5 0 -7 -12 -4 -26 4 -20 2 -25 -8 -19 -8 5 -11 4 -6 -3 4 -6 2 -19 -3 -29
-6 -10 -15 -34 -19 -53 -6 -21 -14 -34 -22 -32 -11 3 -11 0 0 -13 17 -20 40
-2 40 31 0 36 20 71 49 85 14 7 49 34 76 61 28 26 66 54 86 62 20 9 51 29 68
47 21 21 38 29 51 26 11 -3 18 -2 15 3 -3 4 2 10 10 14 18 6 20 36 3 36 -6 0
-8 3 -4 8 4 4 12 7 17 7 5 0 9 5 8 10 0 6 -8 9 -17 7 -13 -2 -14 -1 -4 6 7 5
10 15 7 24 -3 8 1 21 10 28 14 12 18 11 26 -1 5 -8 9 -9 9 -2 0 6 19 22 42 35
49 27 62 61 18 48 -31 -9 -70 -28 -70 -35 0 -3 12 0 26 5 32 13 51 13 39 1
-21 -19 -79 -28 -105 -15 -43 23 -42 45 8 89 24 22 56 47 71 55 14 9 37 23 51
33 31 20 142 61 225 83 93 25 250 20 358 -10 48 -13 94 -29 101 -35 7 -6 16
-8 20 -4 4 4 10 3 14 -2 4 -6 33 -27 65 -48 54 -35 167 -143 167 -159 0 -19
-20 -16 -31 4 -13 24 -38 47 -53 48 -4 0 3 -15 18 -34 14 -19 26 -42 26 -51 0
-9 4 -13 10 -10 6 4 7 -1 3 -11 -5 -15 -7 -15 -15 0 -12 21 -28 21 -28 -1 0
-32 -14 -2 -16 35 -1 20 -3 40 -3 44 -1 4 -12 15 -27 24 -36 24 -51 4 -19 -26
23 -22 35 -47 16 -36 -4 3 -14 -7 -21 -22 -11 -22 -14 -24 -17 -10 -4 15 -8
16 -25 7 -11 -6 -17 -17 -14 -25 4 -11 0 -13 -18 -8 -16 4 -25 1 -30 -11 -3
-9 -2 -13 4 -10 6 3 10 -1 10 -10 0 -12 -5 -15 -16 -11 -20 8 -85 -41 -78 -59
3 -8 12 -11 19 -9 8 3 11 12 8 20 -3 8 0 14 6 14 6 0 11 -4 11 -10 0 -5 8 -10
18 -10 9 0 28 -9 41 -19 25 -19 37 -51 20 -51 -6 0 -7 -4 -4 -10 11 -17 -11
-11 -28 8 -10 11 -14 26 -10 40 5 22 -3 27 -31 16 -8 -3 -12 -12 -9 -20 3 -9
-1 -14 -12 -14 -9 0 -14 4 -11 8 2 4 -11 6 -30 4 -39 -5 -39 -6 -18 43 16 40
9 60 -19 49 -21 -8 -22 -24 -2 -24 22 0 18 -18 -5 -25 -11 -4 -18 -11 -15 -16
4 -5 -1 -9 -9 -9 -9 0 -16 5 -16 10 0 6 -6 10 -13 10 -16 0 -48 -36 -39 -45 4
-3 0 -11 -8 -16 -16 -12 -18 -12 38 5 16 6 22 3 22 -8 0 -21 10 -20 25 1 10
14 16 15 28 5 8 -7 23 -10 33 -6 18 5 18 5 1 -6 -10 -6 -24 -9 -32 -6 -9 3
-12 0 -9 -8 3 -7 -7 -18 -22 -25 -23 -10 -29 -10 -36 3 -7 13 -12 13 -28 4
-25 -16 -30 -9 -33 38 -2 34 -5 39 -24 36 -12 -2 -23 3 -26 10 -2 7 -2 3 -1
-9 2 -12 0 -25 -6 -28 -5 -3 -10 1 -10 10 0 9 -10 29 -22 45 -12 16 -19 33
-15 37 4 3 7 1 7 -7 0 -10 3 -10 15 0 25 20 18 26 -34 29 -43 2 -49 -1 -54
-21 -5 -18 -9 -20 -19 -10 -16 16 -49 16 -46 0 2 -7 -5 -12 -14 -10 -10 2 -18
-2 -18 -8 0 -5 12 -10 28 -11 15 0 21 -3 15 -6 -23 -9 -14 -32 15 -39 39 -10
43 -13 33 -32 -7 -14 -1 -26 30 -57 36 -35 40 -37 52 -21 12 16 15 16 57 -8
59 -34 102 -34 124 -1 16 24 55 37 40 14 -4 -8 0 -9 15 -4 27 8 28 -11 1 -33
-15 -13 -17 -21 -10 -32 9 -13 12 -12 25 4 8 11 15 14 15 8 0 -7 5 -11 11 -9
6 1 13 -4 15 -11 1 -7 0 -8 -3 -2 -3 8 -13 5 -27 -8 -36 -32 -56 -35 -56 -8 0
29 -17 37 -48 23 -18 -8 -22 -16 -16 -31 3 -12 7 -38 7 -58 0 -20 4 -35 9 -32
13 8 9 -6 -6 -22 -9 -8 -17 -10 -21 -4 -3 5 -14 1 -25 -10 -11 -11 -27 -20
-37 -20 -9 0 -13 -3 -10 -7 4 -3 2 -12 -4 -19 -6 -7 -8 -17 -5 -22 8 -14 59
-2 74 16 6 9 12 12 12 7 0 -5 10 2 23 15 l22 25 3 -23 c5 -32 -21 -58 -55 -57
-15 0 -31 -4 -35 -10 -5 -6 -8 -5 -8 3 0 7 -5 10 -11 6 -6 -3 -24 3 -40 15
-29 22 -55 28 -44 11 11 -18 -22 -10 -40 10 -25 27 -42 25 -49 -6 -5 -19 -12
-25 -29 -22 -12 2 -28 -4 -35 -12 -8 -8 -11 -9 -7 -2 4 7 0 12 -9 12 -9 0 -16
5 -16 12 0 20 -13 -1 -15 -25 -1 -15 -7 -21 -20 -19 -10 2 -21 -2 -26 -9 -4
-8 -11 -10 -15 -6 -4 3 -2 13 5 21 9 11 8 15 -3 19 -19 7 -30 -22 -15 -39 14
-17 5 -18 -22 -4 -12 7 -19 7 -19 1 0 -13 -29 -41 -41 -41 -6 0 -7 5 -4 10 3
6 0 11 -7 11 -7 1 -19 2 -27 3 -21 2 -38 33 -25 46 8 8 15 7 25 -2 22 -22 50
-29 65 -17 16 13 19 39 4 39 -5 0 -10 -7 -10 -15 0 -17 -2 -17 -24 -9 -8 3
-12 13 -9 22 4 14 3 15 -6 2 -5 -8 -12 -12 -14 -10 -46 58 -66 130 -42 150 12
10 12 16 1 39 -8 14 -13 47 -12 73 2 26 -1 45 -6 42 -19 -12 -6 9 20 31 15 13
22 25 16 25 -7 0 -15 -7 -18 -16 -4 -9 -13 -14 -21 -10 -8 3 -15 1 -15 -5 0
-5 -16 2 -35 17 -31 23 -39 25 -61 16 -13 -7 -28 -20 -31 -29 -4 -10 -12 -23
-17 -29 -60 -63 -82 -91 -78 -102 3 -11 -10 -16 -30 -13 -22 3 -3 -18 30 -34
l37 -19 -35 -5 c-19 -3 -35 -12 -35 -18 0 -7 -2 -12 -5 -11 -3 1 -15 -4 -28
-11 l-22 -12 25 -33 c14 -18 25 -40 25 -48 0 -15 -43 -34 -64 -29 -13 3 -47
-31 -57 -57 -5 -13 -18 -26 -29 -29 -28 -7 -25 -18 15 -48 l34 -27 -27 -23
c-32 -28 -24 -43 44 -74 24 -12 44 -26 44 -32 0 -6 -19 -28 -42 -49 -36 -31
-41 -40 -30 -53 23 -27 70 -41 98 -28 38 17 47 14 40 -14 -5 -20 -1 -27 22
-39 25 -13 111 -138 112 -163 1 -4 16 -39 36 -78 21 -43 32 -58 28 -40 -3 17
-34 88 -69 158 -55 109 -63 131 -53 147 9 14 20 18 38 14 52 -11 51 -11 46
-70 -6 -54 5 -94 24 -94 5 0 14 25 21 55 12 55 13 56 43 49 43 -9 46 -12 46
-44 0 -16 7 -35 15 -43 11 -12 12 -17 2 -20 -6 -3 -4 -6 7 -6 15 -1 17 5 14
29 -3 17 -2 30 2 30 21 0 132 -45 185 -75 42 -23 85 -38 129 -44 44 -6 83 -20
121 -42 l55 -34 -38 -10 c-25 -8 -32 -13 -22 -18 8 -3 2 -4 -13 0 -19 4 -34 0
-49 -13 -12 -11 -18 -13 -13 -5 6 10 4 12 -4 7 -7 -5 -10 -14 -7 -22 3 -8 0
-11 -10 -7 -7 3 -14 0 -14 -7 0 -6 -5 -8 -10 -5 -8 5 -7 12 1 23 7 10 1 5 -13
-9 -14 -14 -31 -36 -38 -50 l-13 -24 22 19 c18 16 21 17 16 3 -4 -9 -17 -19
-28 -22 -33 -10 -107 -49 -107 -57 0 -4 -6 -5 -14 -2 -7 3 -20 -6 -30 -20 -15
-24 -15 -25 1 -19 11 4 14 3 9 -5 -5 -8 0 -12 13 -12 27 0 27 -16 1 -30 -11
-6 -18 -15 -15 -21 4 -5 11 -7 16 -4 5 4 9 1 9 -4 0 -6 20 -11 45 -11 25 0 45
-4 45 -9 0 -11 -84 -36 -152 -46 -49 -6 -68 -19 -44 -28 8 -3 42 -3 77 0 35 3
75 6 89 7 14 0 28 5 31 10 4 5 15 -3 24 -18 10 -15 27 -26 40 -26 13 0 26 -7
29 -16 4 -12 2 -15 -9 -11 -8 4 -17 2 -20 -3 -4 -6 -14 -10 -23 -10 -10 0 -38
-11 -65 -25 -26 -14 -47 -23 -47 -19 0 4 -6 1 -14 -5 -7 -6 -24 -10 -37 -9
-13 1 -43 -2 -65 -6 -40 -7 -42 -6 -49 21 l-7 28 -11 -35 c-7 -19 -16 -33 -21
-32 -5 2 -12 -1 -15 -6 -3 -5 -19 -14 -36 -20 -19 -6 -23 -11 -12 -11 13 -1
17 -6 13 -19 -5 -14 2 -20 26 -28 33 -9 35 -13 23 -49 -3 -11 1 -8 10 8 8 15
22 27 30 27 7 0 26 7 42 16 26 16 31 16 58 1 20 -11 24 -16 13 -17 -20 0 -42
-36 -34 -56 3 -9 -1 -14 -13 -14 -22 0 -79 -55 -93 -90 -6 -17 -6 -38 2 -66
15 -52 58 -77 114 -64 20 4 34 4 31 -1 -15 -23 41 -29 212 -23 245 9 278 9
356 3 95 -9 94 -17 -3 -18 -44 0 -86 -4 -93 -8 -7 -5 -62 -10 -124 -14 -98 -4
-116 -8 -151 -31 -22 -15 -55 -31 -73 -36 -48 -12 -48 -34 1 -49 22 -7 46 -13
53 -13 10 0 16 -18 20 -57 6 -57 39 -159 58 -177 5 -6 17 -2 29 9 14 12 41 20
79 23 68 5 102 -8 94 -38 -10 -38 -96 -48 -213 -24 -31 6 -33 5 -22 -8 14 -17
135 -31 267 -30 76 1 78 0 50 -13 -16 -8 -55 -14 -85 -15 -30 0 -75 -5 -100
-11 -25 -6 -56 -12 -70 -13 -14 -2 -28 -4 -32 -5 -5 0 -8 -7 -8 -14 0 -22 -47
-39 -62 -24 -25 25 -46 25 -81 1 -36 -24 -40 -47 -11 -58 12 -5 11 -9 -3 -26
-10 -11 -23 -20 -29 -20 -9 0 -9 -6 -1 -24 8 -16 16 -21 21 -15 6 5 14 9 20 9
5 0 6 -3 3 -7 -4 -3 1 -15 10 -26 18 -20 17 -20 -54 -13 -40 4 -87 11 -105 17
-18 5 -46 9 -63 8 -27 -1 -27 -2 10 -10 22 -6 78 -16 125 -24 l85 -14 -70 5
c-77 6 -236 35 -331 60 -54 14 -65 15 -95 2 -81 -36 -89 -38 -114 -28 -41 15
-29 -7 18 -34 52 -30 171 -66 341 -103 70 -15 123 -29 117 -31 -16 -5 -214 34
-311 62 -73 22 -90 23 -127 13 -24 -6 -43 -14 -43 -18 0 -29 27 -62 81 -98 50
-33 68 -41 91 -36 22 5 40 -1 76 -23 26 -16 57 -33 70 -37 23 -7 30 -29 12
-40 -5 -3 -10 -20 -10 -36 0 -18 -4 -28 -10 -24 -5 3 -10 -1 -10 -9 0 -9 -7
-16 -15 -16 -12 0 -13 4 -5 19 7 14 6 21 -3 25 -9 3 -7 9 6 19 15 12 15 16 3
26 -8 7 -12 19 -10 26 7 16 -37 17 -48 1 -3 -5 -21 -14 -39 -20 -23 -7 -34
-18 -35 -31 -2 -46 -4 -56 -13 -50 -5 3 -7 21 -4 41 5 28 1 39 -16 55 -17 16
-25 18 -36 9 -8 -6 -20 -8 -26 -4 -7 4 -10 3 -7 -2 3 -5 -10 -17 -28 -26 -34
-18 -35 -18 -45 5 -9 21 -9 20 -6 -5 2 -15 1 -25 -3 -23 -4 3 -11 -29 -15 -70
-4 -41 -10 -75 -15 -75 -5 0 -11 -14 -15 -31 -4 -17 -9 -28 -12 -26 -2 3 4 38
15 79 19 70 28 163 38 388 2 58 6 123 7 145 2 22 4 55 5 73 2 29 4 32 17 19
24 -25 78 -55 110 -62 26 -6 28 -5 10 6 -52 30 -58 73 -20 134 13 22 25 52 25
66 0 37 20 90 41 114 10 11 25 45 32 76 13 47 13 68 1 145 -24 159 -18 194 36
213 28 9 30 13 20 32 -7 12 -12 48 -12 80 0 33 -4 59 -9 59 -5 0 -9 5 -9 10 0
6 5 10 10 10 12 0 50 37 50 48 0 10 -44 32 -64 32 -14 0 -46 67 -46 98 0 12
-5 22 -11 22 -5 0 -17 17 -25 38 -9 20 -26 48 -39 62 -22 24 -87 160 -145 305
-50 124 -118 264 -158 323 -72 105 -72 105 -72 279 -1 87 1 199 5 248 3 50 5
114 5 144 -1 68 23 152 50 176 11 10 20 23 20 29 0 42 132 226 162 226 19 0
88 87 94 117 6 31 44 73 67 73 5 0 40 30 77 66 94 91 145 124 195 123 35 0 37
-1 16 -10z m983 -353 c37 -49 32 -54 -9 -10 -37 39 -40 44 -26 44 5 0 20 -15
35 -34z m-158 -12 c-3 -8 0 -14 6 -14 7 0 6 -6 -3 -16 -11 -14 -13 -14 -21 1
-11 19 0 58 13 49 6 -3 8 -12 5 -20z m-496 -104 c0 -20 5 -30 15 -30 8 0 15
-4 15 -10 0 -16 -23 -7 -42 17 -22 26 -23 53 -3 53 10 0 15 -10 15 -30z m-50
-25 c0 -8 -4 -15 -10 -15 -5 0 -7 7 -4 15 4 8 8 15 10 15 2 0 4 -7 4 -15z m44
-56 c-6 -11 -24 -2 -24 11 0 5 7 7 15 4 8 -4 12 -10 9 -15z m426 -61 c0 -13
-23 -5 -28 10 -2 7 2 10 12 6 9 -3 16 -11 16 -16z m-1160 -2 c0 -2 -8 -10 -17
-17 -16 -13 -17 -12 -4 4 13 16 21 21 21 13z m1064 -47 c-9 -15 -26 -10 -20 6
3 8 1 15 -4 15 -6 0 -10 5 -10 12 0 6 8 3 20 -7 11 -10 17 -22 14 -26z m196
27 c0 -2 -7 -7 -16 -10 -8 -3 -12 -2 -9 4 6 10 25 14 25 6z m389 -44 c9 -18 9
-22 -2 -22 -13 0 -37 39 -37 61 0 13 23 -10 39 -39z m-693 -62 c1 -16 -3 -27
-7 -24 -11 6 -12 54 -1 54 4 0 7 -13 8 -30z m21 -82 c-3 -7 -5 -2 -5 12 0 14
2 19 5 13 2 -7 2 -19 0 -25z m38 -58 c-3 -5 -11 -10 -16 -10 -6 0 -7 5 -4 10
3 6 11 10 16 10 6 0 7 -4 4 -10z m745 -4 c0 -3 -4 -8 -10 -11 -5 -3 -10 -1
-10 4 0 6 5 11 10 11 6 0 10 -2 10 -4z m-1080 -67 c-8 -14 -9 -24 -2 -28 13
-8 7 -60 -8 -75 -9 -8 -11 -6 -8 8 1 10 -3 21 -11 24 -9 3 -12 0 -9 -10 5 -11
-1 -13 -23 -10 -32 5 -63 32 -36 32 8 0 17 -5 19 -12 5 -15 28 -1 28 18 0 8
-10 19 -22 25 -22 9 -21 9 3 4 22 -4 31 1 50 30 25 36 39 32 19 -6z m51 -42
c-18 -18 -12 -29 12 -23 12 3 16 3 9 0 -10 -5 -10 -9 -1 -20 8 -10 4 -10 -20
2 -17 9 -31 17 -31 20 0 13 25 42 33 37 5 -3 4 -10 -2 -16z m209 3 c0 -5 -2
-10 -4 -10 -3 0 -8 5 -11 10 -3 6 -1 10 4 10 6 0 11 -4 11 -10z m778 -45 c0
-16 -2 -15 -8 5 -11 34 -11 60 0 35 5 -11 8 -29 8 -40z m-1172 30 c13 -12 12
-15 -5 -25 -13 -7 -22 -7 -26 0 -4 7 -12 7 -25 0 -10 -5 -24 -10 -31 -10 -19
0 40 42 69 49 2 1 10 -6 18 -14z m-113 -79 c4 -10 1 -13 -9 -9 -15 6 -19 23
-5 23 5 0 11 -7 14 -14z m1274 -8 c-3 -8 -6 -5 -6 6 -1 11 2 17 5 13 3 -3 4
-12 1 -19z m19 -45 c-3 -10 -8 -45 -12 -78 -4 -43 -13 -67 -30 -86 -14 -14
-37 -63 -53 -110 -16 -46 -35 -104 -44 -129 -8 -25 -36 -111 -61 -192 -26 -81
-67 -193 -93 -250 -25 -57 -48 -125 -52 -153 -9 -71 -20 -43 -16 40 1 39 3 85
4 103 1 29 3 32 16 19 11 -11 12 -22 5 -48 -6 -19 -10 -38 -9 -44 1 -21 47 95
78 195 17 58 46 146 63 195 17 50 31 106 32 125 1 19 14 56 29 81 15 25 27 57
27 71 0 14 15 44 33 68 46 61 44 58 57 138 7 39 16 72 22 72 5 0 7 -8 4 -17z
m-1173 -35 c-12 -13 -23 -32 -25 -43 -4 -19 -4 -19 -16 3 -10 18 -10 22 1 22
8 0 22 9 32 20 10 11 20 20 23 20 3 0 -4 -10 -15 -22z m-883 -58 c0 -5 -2 -10
-4 -10 -3 0 -8 5 -11 10 -3 6 -1 10 4 10 6 0 11 -4 11 -10z m-5 -70 c3 -5 1
-10 -4 -10 -6 0 -11 5 -11 10 0 6 2 10 4 10 3 0 8 -4 11 -10z m2245 -24 c0 -3
-4 -8 -10 -11 -5 -3 -10 -1 -10 4 0 6 5 11 10 11 6 0 10 -2 10 -4z m-190 -420
c0 -3 -4 -8 -10 -11 -5 -3 -10 -1 -10 4 0 6 5 11 10 11 6 0 10 -2 10 -4z
m-1730 -206 c0 -5 -2 -10 -4 -10 -3 0 -8 5 -11 10 -3 6 -1 10 4 10 6 0 11 -4
11 -10z m875 -40 c-3 -5 -12 -10 -18 -10 -7 0 -6 4 3 10 19 12 23 12 15 0z
m-269 -9 c-2 -3 51 -5 117 -5 90 2 111 0 82 -7 -55 -11 -225 -9 -225 3 0 6 -7
5 -15 -2 -13 -11 -14 -10 -10 2 4 9 17 16 30 16 14 0 23 -3 21 -7z m451 -57
c-3 -3 -12 -4 -19 -1 -8 3 -5 6 6 6 11 1 17 -2 13 -5z m-47 -8 c0 -2 -7 -6
-15 -10 -8 -3 -15 -1 -15 4 0 6 7 10 15 10 8 0 15 -2 15 -4z m-65 -21 c-16 -8
-41 -14 -55 -14 -20 1 -17 4 15 14 52 18 78 17 40 0z m-191 -16 c4 6 29 10 55
8 27 -1 47 -6 44 -10 -3 -5 -17 -8 -31 -7 -15 1 -29 1 -32 0 -3 -1 -18 -4 -35
-5 -16 -2 -44 -6 -62 -9 -17 -3 -34 -2 -38 3 -7 13 78 30 86 18 4 -5 9 -5 13
2z m96 -73 c-27 -15 -100 -32 -100 -23 0 26 16 34 68 35 54 2 56 1 32 -12z
m178 -3 c-10 -2 -28 -2 -40 0 -13 2 -5 4 17 4 22 1 32 -1 23 -4z m362 -38 c0
-24 -7 -33 -45 -59 -16 -12 -18 -18 -8 -37 23 -47 17 -299 -8 -299 -5 0 -6 30
-3 68 10 102 5 214 -10 252 -4 10 4 21 24 32 17 9 30 25 30 36 0 17 8 32 17
32 2 0 3 -11 3 -25z m-1740 -25 c0 -5 -4 -10 -10 -10 -5 0 -10 5 -10 10 0 6 5
10 10 10 6 0 10 -4 10 -10z m275 0 c3 -5 1 -10 -4 -10 -6 0 -11 5 -11 10 0 6
2 10 4 10 3 0 8 -4 11 -10z m2015 -60 c0 -5 -7 -10 -15 -10 -8 0 -15 5 -15 10
0 6 7 10 15 10 8 0 15 -4 15 -10z m-480 -16 c0 -8 -5 -12 -10 -9 -6 4 -8 11
-5 16 9 14 15 11 15 -7z m-10 -44 c0 -5 -5 -10 -11 -10 -5 0 -7 5 -4 10 3 6 8
10 11 10 2 0 4 -4 4 -10z m-835 -40 c28 -4 45 -8 38 -9 -6 0 -15 -10 -18 -21
-3 -11 -12 -20 -20 -20 -7 0 -15 -5 -17 -11 -2 -7 -16 -13 -31 -15 -22 -2 -27
1 -27 21 0 12 7 25 15 29 21 8 19 21 -7 35 -18 9 -18 10 -3 5 11 -3 43 -10 70
-14z m223 -47 c-10 -2 -26 -2 -35 0 -10 3 -2 5 17 5 19 0 27 -2 18 -5z m-308
-184 c0 -10 -7 -19 -15 -19 -15 0 -21 31 -9 43 11 10 24 -3 24 -24z m230 12
c0 -8 -66 -71 -75 -71 -3 0 -3 5 0 10 3 6 0 13 -9 16 -12 5 -12 8 2 26 27 31
82 45 82 19z m658 -61 c8 -13 9 -20 1 -20 -6 0 -9 -6 -6 -12 2 -7 0 -22 -6
-32 -18 -35 -37 -137 -41 -218 -3 -44 -8 -84 -13 -89 -4 -4 -6 34 -5 86 2 52
0 95 -4 95 -4 0 -16 -7 -26 -17 -16 -14 -18 -14 -18 -1 0 9 6 34 14 56 13 36
13 41 -1 46 -22 9 4 38 27 31 20 -6 42 16 45 48 1 12 3 28 4 35 2 18 15 15 29
-8z m272 -4 c0 -11 -19 -15 -25 -6 -3 5 1 10 9 10 9 0 16 -2 16 -4z m-835 -76
c17 -6 14 -9 -18 -15 -40 -8 -53 -3 -42 14 7 13 31 13 60 1z m544 -412 c0 -57
1 -112 3 -122 4 -25 -19 -33 -26 -9 -11 37 -7 132 10 211 9 45 13 20 13 -80z
m-578 -254 c-6 -14 -11 -27 -11 -29 0 -8 61 -15 158 -17 57 -1 106 -6 109 -11
5 -9 -290 -2 -342 8 -41 9 -44 15 -7 15 30 0 32 3 32 33 0 25 6 36 22 44 33
15 55 -9 39 -43z m695 -41 c-4 -32 -9 -83 -12 -113 -5 -71 -20 -105 -48 -118
l-23 -10 19 50 c10 28 26 64 34 80 17 33 13 34 -24 11 -27 -17 -27 -17 -10 2
9 11 26 50 39 88 12 37 24 67 27 67 3 0 2 -26 -2 -57z m-942 -284 c37 -10 39
-12 19 -20 -14 -5 -43 -2 -78 8 -45 13 -58 14 -65 4 -4 -7 -11 -12 -16 -12
-16 1 -44 -10 -42 -17 1 -4 -2 -14 -5 -22 -3 -8 -11 -31 -17 -50 -9 -31 -9
-28 -5 26 2 33 7 68 11 77 10 27 108 30 198 6z m-444 -49 c0 -5 -2 -10 -4 -10
-3 0 -8 5 -11 10 -3 6 -1 10 4 10 6 0 11 -4 11 -10z m1304 -95 c-4 -34 -10
-52 -15 -43 -7 12 10 112 18 104 2 -2 0 -29 -3 -61z m-1284 23 c0 -18 -2 -20
-9 -8 -6 8 -7 18 -5 22 9 14 14 9 14 -14z"/>
<path d="M1460 4160 c-13 -9 -13 -10 0 -10 8 0 22 5 30 10 13 9 13 10 0 10 -8
0 -22 -5 -30 -10z"/>
<path d="M2015 4140 c3 -5 16 -15 28 -21 22 -12 22 -12 3 10 -19 21 -43 30
-31 11z"/>
<path d="M1560 4115 c0 -16 16 -20 24 -6 3 5 -1 11 -9 15 -9 3 -15 0 -15 -9z"/>
<path d="M1646 4121 c-4 -5 3 -7 14 -4 23 6 26 13 6 13 -8 0 -17 -4 -20 -9z"/>
<path d="M1961 4077 c-7 -10 -17 -15 -23 -11 -8 5 -9 1 -5 -10 4 -10 7 -21 7
-24 0 -4 9 4 20 18 15 18 18 20 13 6 -5 -16 -3 -18 11 -13 10 4 15 3 11 -3 -3
-6 -1 -10 4 -10 6 0 11 5 11 11 0 5 5 7 11 3 8 -4 8 0 0 15 -8 14 -8 21 -1 21
5 0 10 4 10 10 0 16 -58 6 -69 -13z"/>
<path d="M1620 4080 c-8 -5 -10 -10 -5 -10 6 0 17 5 25 10 8 5 11 10 5 10 -5
0 -17 -5 -25 -10z"/>
<path d="M1864 4072 c-18 -13 -18 -14 4 -7 28 8 29 -6 2 -23 -21 -13 -19 -32
3 -32 27 1 48 28 42 52 -7 28 -24 31 -51 10z"/>
<path d="M1780 4070 c-13 -8 -13 -10 0 -10 19 0 1 -17 -25 -23 -13 -3 -10 -5
11 -6 20 -1 34 5 38 14 3 8 1 15 -5 15 -6 0 -7 5 -4 10 8 12 4 12 -15 0z"/>
<path d="M1820 4061 c0 -5 5 -13 10 -16 6 -3 10 -2 10 4 0 5 -4 13 -10 16 -5
3 -10 2 -10 -4z"/>
<path d="M2100 4045 c-8 -9 -8 -15 -2 -15 12 0 26 19 19 26 -2 2 -10 -2 -17
-11z"/>
<path d="M2310 4051 c0 -5 5 -13 10 -16 6 -3 10 -2 10 4 0 5 -4 13 -10 16 -5
3 -10 2 -10 -4z"/>
<path d="M1640 4041 c0 -5 6 -14 14 -20 10 -9 15 -8 19 3 3 8 -1 17 -9 20 -21
8 -24 8 -24 -3z"/>
<path d="M2176 4023 c-6 -14 -5 -15 5 -6 7 7 10 15 7 18 -3 3 -9 -2 -12 -12z"/>
<path d="M1960 4019 c0 -5 5 -7 10 -4 6 3 10 8 10 11 0 2 -4 4 -10 4 -5 0 -10
-5 -10 -11z"/>
<path d="M1680 4016 c0 -2 7 -7 16 -10 8 -3 12 -2 9 4 -6 10 -25 14 -25 6z"/>
<path d="M1637 3993 c-3 -5 -1 -16 2 -26 6 -17 8 -17 20 -3 7 8 10 20 6 26 -7
12 -22 13 -28 3z"/>
<path d="M2082 3965 c-20 -10 -21 -13 -7 -19 26 -10 31 -7 31 14 0 11 0 20 -1
19 0 -1 -10 -7 -23 -14z"/>
<path d="M1978 3903 c7 -3 16 -2 19 1 4 3 -2 6 -13 5 -11 0 -14 -3 -6 -6z"/>
<path d="M1625 3870 c-3 -5 -1 -10 4 -10 6 0 11 5 11 10 0 6 -2 10 -4 10 -3 0
-8 -4 -11 -10z"/>
<path d="M1993 3705 c0 -8 4 -12 9 -9 4 3 8 9 8 15 0 5 -4 9 -8 9 -5 0 -9 -7
-9 -15z"/>
<path d="M1747 3605 c-16 -12 -16 -14 -2 -29 21 -20 22 -20 28 3 7 29 -5 41
-26 26z"/>
<path d="M867 3599 c7 -7 15 -10 18 -7 3 3 -2 9 -12 12 -14 6 -15 5 -6 -5z"/>
<path d="M1850 3599 c0 -5 5 -7 10 -4 6 3 10 8 10 11 0 2 -4 4 -10 4 -5 0 -10
-5 -10 -11z"/>
<path d="M1925 3600 c-3 -5 -1 -10 4 -10 6 0 11 5 11 10 0 6 -2 10 -4 10 -3 0
-8 -4 -11 -10z"/>
<path d="M1920 3556 c0 -2 7 -9 15 -16 13 -11 14 -10 9 4 -5 14 -24 23 -24 12z"/>
<path d="M1828 3487 c7 -8 9 -17 5 -20 -3 -4 -1 -7 5 -7 27 0 21 32 -7 38 -11
2 -12 0 -3 -11z"/>
<path d="M838 3483 c7 -3 16 -2 19 1 4 3 -2 6 -13 5 -11 0 -14 -3 -6 -6z"/>
<path d="M933 3358 c-6 -7 -13 -22 -17 -32 -5 -15 -4 -17 8 -7 7 6 16 21 19
31 6 23 3 25 -10 8z"/>
<path d="M1070 2703 c-8 -3 -26 -10 -40 -15 -21 -8 -23 -11 -9 -18 17 -10 99
17 99 33 0 8 -28 8 -50 0z"/>
<path d="M1334 2505 c18 -55 36 -121 39 -147 4 -26 13 -62 22 -80 8 -18 13
-24 10 -13 -4 11 -10 49 -15 85 -4 36 -20 93 -34 127 -14 35 -26 69 -26 76 0
7 -7 22 -15 33 -8 10 0 -26 19 -81z"/>
<path d="M1655 2544 c-24 -25 -10 -29 16 -5 13 12 18 21 12 21 -7 0 -19 -7
-28 -16z"/>
<path d="M1586 2494 c-5 -14 -4 -15 9 -4 17 14 19 20 6 20 -5 0 -12 -7 -15
-16z"/>
<path d="M1555 2490 c-3 -5 -1 -10 4 -10 6 0 11 5 11 10 0 6 -2 10 -4 10 -3 0
-8 -4 -11 -10z"/>
<path d="M1495 2479 c-11 -17 1 -21 15 -4 8 9 8 15 2 15 -6 0 -14 -5 -17 -11z"/>
<path d="M1520 2140 c0 -6 17 -10 39 -8 22 1 38 5 35 10 -8 12 -74 10 -74 -2z"/>
<path d="M1305 1879 c-14 -42 20 -149 46 -149 5 0 9 12 9 26 0 16 4 23 12 18
8 -5 9 0 5 17 -4 13 -7 42 -7 64 0 37 -2 40 -29 42 -22 2 -32 -3 -36 -18z"/>
<path d="M1420 1560 c0 -22 5 -40 10 -40 6 0 10 18 10 40 0 22 -4 40 -10 40
-5 0 -10 -18 -10 -40z"/>
<path d="M1485 1570 c28 -12 55 -12 55 0 0 6 -17 10 -37 9 -31 0 -34 -2 -18
-9z"/>
<path d="M1713 1223 c9 -2 23 -2 30 0 6 3 -1 5 -18 5 -16 0 -22 -2 -12 -5z"/>
<path d="M1608 1213 c7 -3 16 -2 19 1 4 3 -2 6 -13 5 -11 0 -14 -3 -6 -6z"/>
<path d="M1448 1203 c7 -3 16 -2 19 1 4 3 -2 6 -13 5 -11 0 -14 -3 -6 -6z"/>
<path d="M1304 1139 c-3 -6 -3 -42 0 -80 l7 -69 -33 5 c-31 4 -31 4 7 -9 22
-8 49 -15 60 -15 19 0 19 1 -1 9 -21 8 -26 30 -28 128 -1 46 -2 47 -12 31z"/>
</g>
</svg>
