<?xml version="1.0" standalone="no"?>
<!DOCTYPE svg PUBLIC "-//W3C//DTD SVG 20010904//EN"
 "http://www.w3.org/TR/2001/REC-SVG-20010904/DTD/svg10.dtd">
<svg version="1.0" xmlns="http://www.w3.org/2000/svg"
 width="1920.000000pt" height="1080.000000pt" viewBox="0 0 1920.000000 1080.000000"
 preserveAspectRatio="xMidYMid meet">

<g transform="translate(0.000000,1080.000000) scale(0.100000,-0.100000)"
fill="#000000" stroke="none">
<path d="M0 5400 l0 -5400 9600 0 9600 0 0 5400 0 5400 -9600 0 -9600 0 0
-5400z m9975 -2250 c-3 -5 -10 -10 -16 -10 -5 0 -9 5 -9 10 0 6 7 10 16 10 8
0 12 -4 9 -10z m-330 -25 c22 -3 55 -8 73 -11 19 -4 52 -1 74 7 33 11 41 10
48 -1 7 -11 11 -11 24 -1 8 7 24 10 36 6 11 -3 73 -1 137 6 87 9 118 9 121 0
2 -6 10 -11 17 -11 7 0 15 -5 17 -12 3 -9 19 -8 66 1 94 18 259 9 292 -16 16
-13 -33 -17 -132 -13 -162 8 -421 0 -488 -15 -18 -4 -30 -13 -30 -22 0 -11 6
-13 23 -8 35 11 424 22 512 13 58 -5 83 -12 95 -26 22 -27 61 -41 135 -48 87
-9 94 -23 8 -16 -48 4 -64 2 -59 -7 4 -6 18 -8 32 -5 14 4 24 2 24 -4 0 -22
-150 -32 -200 -13 -14 5 -70 12 -125 15 -160 9 -245 18 -251 27 -3 5 7 9 21 9
16 0 24 4 20 11 -4 5 -32 10 -63 9 -76 -2 -174 10 -190 23 -9 7 -18 5 -30 -6
-15 -13 -25 -15 -53 -7 -18 6 -48 10 -65 10 -17 0 -33 3 -37 6 -3 3 -30 8 -59
10 -165 11 -218 17 -218 24 0 15 -40 22 -54 10 -8 -6 -19 -9 -26 -8 -22 5 -22
-19 0 -25 11 -3 20 -1 20 4 0 14 44 10 79 -7 23 -11 56 -16 107 -15 85 2 102
-16 22 -22 -29 -2 -3 -3 58 -3 67 1 117 -4 125 -10 9 -7 54 -10 124 -9 110 3
167 -6 195 -31 10 -9 59 -15 140 -19 69 -4 160 -13 202 -21 43 -8 105 -14 137
-13 44 1 64 -2 76 -15 9 -9 25 -16 35 -16 10 0 22 -4 25 -10 6 -10 -64 -7
-215 10 -47 5 -121 12 -165 14 -92 6 -213 30 -228 45 -6 6 -21 11 -33 11 -13
0 -25 4 -29 10 -3 5 -52 7 -123 4 -88 -5 -127 -11 -156 -26 -33 -16 -46 -18
-85 -9 -46 10 -183 31 -198 31 -4 -1 6 -8 22 -17 18 -10 55 -17 90 -18 33 -1
67 -4 75 -7 8 -4 44 -14 78 -24 64 -18 64 -21 9 -38 -23 -7 -27 -7 -26 0 1 8
-23 24 -36 24 -17 0 -34 -47 -22 -59 8 -8 3 -11 -17 -11 -23 0 -26 3 -17 14 7
8 8 17 3 20 -12 7 -54 -23 -47 -34 3 -4 -3 -6 -14 -3 -10 3 -22 0 -25 -6 -4
-6 -16 -11 -27 -11 -10 0 -19 -4 -19 -9 0 -6 15 -7 33 -4 23 3 46 -2 73 -16
25 -14 57 -21 91 -21 28 0 55 -4 58 -10 10 -17 25 -11 25 10 0 24 22 26 55 4
15 -10 36 -14 52 -11 159 30 226 37 271 25 l46 -12 -29 -9 c-17 -6 -32 -13
-35 -17 -3 -3 -20 -10 -38 -16 -19 -5 -32 -13 -31 -19 3 -11 65 -35 91 -35 12
0 15 -5 11 -16 -5 -13 -15 -15 -49 -9 -42 6 -59 -5 -33 -21 8 -4 8 -9 0 -17
-23 -23 -11 -37 32 -37 52 0 77 -14 59 -32 -14 -14 -16 -48 -4 -48 5 0 14 10
20 23 8 17 11 18 11 5 1 -10 7 -18 15 -18 28 0 25 -17 -9 -54 -18 -20 -36 -45
-39 -54 -3 -9 -4 -5 -2 11 3 27 -7 36 -19 17 -9 -14 -25 -12 -25 3 0 29 -32
77 -51 77 -10 0 -19 -5 -19 -10 0 -17 -78 -5 -100 15 -26 24 -26 39 1 25 16
-9 25 -8 40 6 20 18 26 44 10 44 -6 0 -13 -4 -16 -10 -4 -6 -13 -5 -25 3 -15
9 -25 9 -37 1 -13 -8 -24 -7 -43 2 -72 37 -103 46 -195 55 -55 5 -120 14 -145
19 -25 5 -61 9 -82 10 -20 0 -38 6 -41 13 -3 10 -9 10 -26 0 -11 -7 -26 -13
-33 -13 -6 0 -19 -7 -29 -16 -26 -24 -107 -5 -82 19 3 4 11 2 18 -3 14 -11 55
14 55 35 0 14 10 19 68 30 34 7 39 14 21 32 -8 8 -4 15 12 27 30 20 17 33 -18
17 -20 -9 -28 -9 -33 0 -6 8 -10 8 -16 -2 -4 -7 -3 -14 4 -17 20 -6 14 -22
-12 -32 -28 -10 -96 16 -96 37 0 10 -5 11 -19 3 -25 -13 -31 -13 -31 3 0 12
62 57 80 57 5 0 10 5 10 10 0 15 -29 12 -46 -5 -9 -8 -25 -15 -37 -15 -12 0
-28 -4 -36 -9 -10 -7 -19 -4 -28 7 -19 26 -16 33 12 26 20 -5 25 -2 25 14 0
14 -9 21 -32 26 l-32 6 23 16 c18 13 28 14 48 5 32 -15 43 -6 17 15 -13 11
-15 17 -6 20 14 7 16 30 2 39 -17 10 -120 15 -138 6 -9 -4 -27 -13 -39 -19
-36 -19 -53 -15 -53 13 0 30 -11 32 -35 5 -20 -22 -45 -27 -45 -9 0 7 8 17 17
24 26 19 -114 19 -147 0 -23 -14 -20 -14 43 -9 39 4 67 3 67 -3 0 -13 -83 -33
-139 -33 -31 0 -53 -5 -61 -15 -9 -11 -16 -12 -26 -4 -9 7 -25 6 -59 -5 -25
-9 -56 -16 -70 -16 -13 0 -46 -5 -73 -11 -55 -13 -175 -4 -151 12 10 6 7 9
-12 9 -14 0 -33 -8 -43 -18 -9 -11 -34 -28 -56 -38 -47 -22 -52 -38 -10 -29
16 4 39 3 51 0 20 -7 18 -9 -17 -22 -49 -18 -131 -36 -164 -34 -14 0 -38 0
-54 0 -15 0 -35 6 -42 12 -11 9 -22 8 -49 -7 -31 -16 -33 -20 -19 -35 13 -15
13 -17 -2 -23 -10 -4 -22 -2 -28 4 -14 14 -26 12 -26 -5 0 -8 -12 -26 -27 -40
-27 -24 -27 -25 -5 -25 12 0 22 5 22 12 0 6 3 8 6 5 13 -12 -19 -38 -40 -33
-11 3 -24 -1 -30 -9 -6 -7 -29 -16 -50 -20 -22 -3 -44 -9 -50 -14 -6 -5 -29
-14 -51 -21 -22 -6 -53 -18 -70 -25 -65 -28 -159 -65 -168 -65 -5 0 -7 7 -3
15 7 20 -16 19 -56 -1 -17 -9 -39 -13 -50 -11 -29 8 -48 -2 -41 -21 5 -12 2
-14 -13 -8 -10 4 -36 10 -56 13 -24 4 -35 10 -32 18 5 11 111 65 128 65 4 0
31 11 59 24 29 12 59 26 67 30 8 3 -3 3 -25 0 -21 -3 -56 -14 -77 -25 -20 -10
-46 -19 -57 -19 -11 0 -23 -4 -26 -10 -3 -5 -13 -10 -22 -10 -27 0 -73 -40
-73 -64 0 -18 -7 -25 -31 -30 -24 -5 -30 -10 -25 -23 6 -16 6 -16 -12 0 -23
21 -51 22 -89 3 -35 -19 -149 -61 -185 -70 -21 -5 -28 -3 -28 9 0 8 -4 15 -10
15 -5 0 -10 -6 -10 -14 0 -16 -30 -28 -85 -31 -71 -4 -104 -16 -132 -46 -29
-31 -76 -59 -100 -59 -13 0 -18 -12 -7 -22 5 -6 85 29 94 41 9 12 59 41 70 41
5 0 10 -5 10 -11 0 -12 -25 -39 -36 -39 -4 0 -20 -11 -34 -25 -14 -13 -43 -31
-65 -38 -52 -18 -62 -50 -13 -40 18 3 38 10 45 15 6 5 13 5 17 0 5 -9 -4 -14
-69 -43 -78 -34 -228 -64 -222 -45 3 10 57 28 118 40 14 3 31 17 40 33 8 16
20 32 27 36 10 7 10 12 2 22 -7 8 -9 19 -5 26 5 8 0 9 -16 4 -19 -5 -21 -4 -9
4 13 10 13 12 0 21 -19 13 -40 13 -40 0 0 -5 -6 -10 -12 -10 -7 0 -35 -11 -61
-24 -44 -22 -47 -25 -32 -40 19 -18 12 -21 -16 -6 -23 13 -59 -8 -79 -45 -15
-27 -50 -34 -50 -10 0 8 5 15 10 15 6 0 10 6 10 14 0 8 9 18 20 21 22 7 27 25
8 25 -7 0 -2 9 12 20 14 11 32 20 40 19 11 0 10 -3 -4 -14 -11 -8 -17 -18 -13
-22 8 -7 77 28 77 39 0 5 6 8 14 8 8 0 21 6 28 13 7 6 24 17 38 23 14 7 48 22
75 34 95 43 120 58 119 74 -1 12 4 14 21 10 14 -3 35 3 60 20 27 19 33 26 19
26 -29 0 4 19 36 21 14 0 19 3 11 6 -7 3 17 18 55 35 38 16 77 33 86 38 10 6
25 10 33 10 8 0 15 5 15 10 0 6 11 10 25 10 14 0 25 5 25 10 0 6 11 10 24 10
13 0 29 7 36 15 7 8 17 15 22 15 6 0 24 6 41 14 18 8 79 30 137 51 58 20 113
41 122 46 10 5 27 9 38 9 11 0 20 4 20 10 0 5 12 12 28 16 29 6 294 91 327
104 11 5 27 9 35 9 41 1 111 15 116 22 3 5 16 9 30 9 14 0 23 4 20 8 -3 5 3 8
12 8 56 0 73 5 66 17 -6 9 -5 9 8 0 8 -7 18 -10 22 -6 4 4 26 8 49 9 54 2 99
14 112 30 6 7 28 14 50 17 22 3 51 8 64 12 16 6 22 5 18 -3 -4 -5 -1 -12 5
-15 7 -2 -1 -8 -19 -13 -25 -7 -30 -12 -23 -24 8 -13 12 -13 32 -1 12 8 38 15
58 17 69 6 185 26 202 35 9 5 28 9 43 9 14 0 24 3 22 8 -3 4 14 7 36 8 51 0
184 23 212 35 13 6 -17 7 -80 3 -55 -3 -104 -9 -110 -13 -5 -5 -35 -11 -67
-15 -31 -3 -63 -9 -72 -12 -9 -3 -16 -1 -16 5 0 6 15 11 33 12 30 1 31 1 7 9
-28 9 -26 9 55 15 22 2 81 10 130 19 256 44 375 56 375 37 0 -14 -18 -23 -22
-12 -1 5 -12 3 -23 -6 -19 -14 -17 -15 30 -9 30 4 55 13 63 24 13 16 14 16 27
-2 12 -16 17 -17 31 -5 28 23 340 33 479 14z m1003 -62 c-15 -2 -42 -2 -60 0
-18 2 -6 4 27 4 33 0 48 -2 33 -4z m-2213 -29 c-8 -9 -33 -18 -55 -21 -22 -3
-40 -9 -40 -13 0 -10 -49 -19 -55 -10 -3 4 10 13 28 20 17 7 46 18 62 26 17 7
40 14 53 14 21 0 22 -1 7 -16z m2505 -19 c41 -8 86 -17 100 -19 14 -2 36 -8
50 -14 51 -20 108 -34 121 -29 10 4 9 6 -3 6 -10 1 -18 6 -18 12 0 15 78 5 94
-12 8 -9 8 -10 -3 -4 -9 5 -12 3 -9 -6 3 -8 16 -14 29 -14 13 -1 41 -9 63 -18
21 -9 42 -17 46 -17 15 0 31 -28 20 -35 -8 -5 -8 -11 0 -20 8 -9 4 -11 -16 -7
-20 4 -25 1 -22 -9 3 -8 19 -14 39 -15 19 0 44 -5 56 -12 28 -15 97 -16 87 -1
-3 6 -17 9 -30 6 -13 -2 -21 0 -18 4 3 5 -2 9 -10 9 -14 0 -50 59 -41 68 2 2
27 -3 55 -12 37 -12 56 -14 70 -6 24 13 33 13 25 0 -3 -6 2 -13 12 -17 10 -4
40 -24 66 -45 43 -34 62 -40 145 -52 26 -4 25 -5 12 29 -5 14 -14 24 -19 21
-4 -3 -17 1 -27 9 -18 14 -17 15 11 8 32 -7 55 -25 55 -42 0 -6 5 -20 12 -31
10 -15 9 -22 -6 -39 -21 -23 -44 -18 -25 5 10 12 1 14 -58 14 -61 0 -74 3 -98
26 -15 14 -30 22 -34 18 -3 -4 0 -9 7 -11 6 -3 12 -12 12 -20 0 -21 -54 -10
-92 17 -30 22 -78 27 -78 9 0 -17 32 -38 57 -39 31 0 37 -17 9 -24 -18 -4 -23
-11 -19 -26 3 -11 14 -20 24 -20 24 0 25 -16 2 -28 -16 -9 -16 -11 0 -27 22
-21 21 -24 -3 -18 -11 3 -20 12 -20 19 0 8 -11 20 -25 26 -16 7 -25 19 -25 35
0 13 -6 23 -14 23 -15 0 -30 27 -27 48 1 9 -5 12 -16 10 -19 -5 -87 25 -98 42
-3 5 -22 10 -41 10 -40 0 -77 16 -69 30 3 6 -6 16 -22 22 -15 7 -35 20 -43 28
-27 26 -210 105 -270 116 -19 4 -37 10 -40 14 -3 3 -21 11 -40 18 -33 11 -33
11 -5 7 17 -2 64 -11 105 -20z m-1838 -66 c3 -9 9 -9 25 0 12 6 29 11 37 11
25 0 19 -26 -9 -38 -45 -21 -105 -13 -105 13 0 22 45 34 52 14z m1956 -60 c28
15 35 14 29 -4 -4 -10 11 -22 49 -40 29 -14 54 -30 54 -36 0 -6 4 -8 8 -5 4 2
14 0 22 -5 13 -8 12 -12 -4 -24 -23 -17 -21 -21 19 -31 27 -7 29 -6 16 9 -16
20 -11 21 23 5 21 -9 24 -14 14 -25 -13 -16 4 -33 35 -33 9 0 17 -7 17 -15 0
-15 -29 -20 -90 -17 -24 1 -24 1 -4 -8 12 -5 25 -13 29 -19 3 -6 11 -11 16
-11 6 0 8 4 5 9 -4 5 3 7 14 4 11 -3 20 -9 20 -14 0 -14 -20 -21 -38 -13 -9 4
-26 6 -38 5 -11 -1 -42 5 -69 14 -26 9 -60 14 -76 11 -20 -4 -28 -1 -32 13 -3
13 -12 18 -31 16 -14 -2 -24 0 -22 4 3 4 -23 8 -57 8 -54 1 -102 8 -102 13 0
1 -23 3 -52 5 -28 1 -65 8 -83 15 -20 8 -34 10 -38 4 -4 -6 -20 -7 -37 -3 -24
5 -25 7 -7 8 12 0 22 5 22 10 0 5 -25 9 -55 8 -30 -1 -55 1 -55 4 0 3 -34 4
-76 3 -52 -1 -74 1 -71 9 2 6 14 14 27 17 45 11 35 30 -17 31 -34 0 -42 3 -28
8 21 8 70 7 258 -9 89 -8 115 -7 144 5 20 8 46 15 59 15 13 0 24 5 24 10 0 6
-4 10 -10 10 -23 0 -7 16 27 27 24 7 42 8 49 2 6 -5 18 -7 27 -3 12 4 13 12 6
37 l-9 31 34 -33 c29 -28 37 -31 54 -22z m2 21 c0 -5 -4 -10 -9 -10 -6 0 -13
5 -16 10 -3 6 1 10 9 10 9 0 16 -4 16 -10z m-180 -10 c0 -5 -7 -10 -15 -10 -8
0 -15 5 -15 10 0 6 7 10 15 10 8 0 15 -4 15 -10z m-2258 -22 c2 -15 11 -24 26
-26 12 -2 22 -8 22 -13 0 -14 -34 -11 -55 5 -23 17 -31 56 -11 56 8 0 16 -10
18 -22z m-42 -13 c-17 -16 -174 -25 -187 -10 -5 4 7 5 25 2 24 -5 34 -3 38 8
5 11 23 15 72 15 58 0 65 -2 52 -15z m1319 -21 c30 -10 -6 -21 -51 -16 -31 2
-48 9 -48 17 0 9 12 12 43 8 23 -2 48 -7 56 -9z m-1609 -4 c0 -5 -5 -10 -11
-10 -5 0 -7 5 -4 10 3 6 8 10 11 10 2 0 4 -4 4 -10z m775 -1 c10 -15 -1 -23
-20 -15 -9 3 -13 10 -10 16 8 13 22 13 30 -1z m1715 1 c0 -5 -13 -10 -29 -10
-17 0 -33 5 -36 10 -4 6 8 10 29 10 20 0 36 -4 36 -10z m-1685 -20 c3 -5 1
-10 -4 -10 -6 0 -11 5 -11 10 0 6 2 10 4 10 3 0 8 -4 11 -10z m-145 -10 c0 -5
-4 -10 -10 -10 -5 0 -10 5 -10 10 0 6 5 10 10 10 6 0 10 -4 10 -10z m902 -5
c63 3 76 -7 47 -34 -22 -20 -66 -30 -55 -12 3 5 -25 3 -62 -4 -37 -7 -69 -11
-71 -9 -2 2 2 10 9 19 7 9 10 19 6 23 -4 4 -13 -1 -21 -11 -12 -17 -45 -15
-45 3 0 16 96 39 125 30 11 -4 41 -6 67 -5z m128 7 c0 -5 21 -10 48 -11 26 -1
72 -6 102 -12 30 -6 103 -13 163 -16 59 -3 107 -9 107 -14 0 -12 -172 -11
-206 1 -14 6 -66 13 -116 17 -49 3 -91 10 -94 15 -3 4 -16 8 -30 8 -13 0 -24
5 -24 10 0 6 11 10 25 10 14 0 25 -4 25 -8z m-1320 -6 c0 -11 -19 -15 -25 -6
-3 5 1 10 9 10 9 0 16 -2 16 -4z m3277 -21 c20 -9 45 -13 55 -9 24 7 100 -5
93 -16 -3 -4 -23 -6 -45 -3 -22 3 -45 1 -52 -4 -7 -6 -27 -13 -45 -16 -24 -5
-31 -3 -27 7 3 7 -2 19 -11 26 -15 12 -21 30 -10 30 3 0 22 -7 42 -15z m-3446
-31 c8 -4 7 -10 0 -17 -9 -9 -5 -16 11 -29 22 -17 22 -19 6 -32 -10 -7 -18
-18 -18 -23 0 -6 -13 -13 -30 -16 -22 -5 -30 -12 -30 -27 0 -13 -4 -18 -11
-15 -5 4 -19 -1 -30 -11 -13 -11 -36 -18 -68 -18 -27 -1 -44 -4 -39 -7 6 -4 7
-12 4 -18 -10 -16 -36 -13 -36 4 0 8 -5 15 -11 15 -5 0 -8 -4 -5 -9 3 -5 -4
-11 -17 -15 -41 -11 -50 -6 -26 13 13 11 20 23 16 27 -4 5 -12 2 -17 -5 -5 -9
-15 -11 -26 -6 -13 5 -15 9 -6 12 6 3 12 11 12 18 0 7 14 16 30 20 17 4 30 11
30 15 0 5 17 21 38 36 l37 26 -37 -4 c-21 -2 -38 -2 -38 2 1 15 19 28 50 34
19 3 51 15 70 25 34 19 114 22 141 5z m502 -15 c10 -11 16 -23 13 -27 -10 -10
-56 17 -56 33 0 22 23 19 43 -6z m-294 -3 c20 -11 21 -14 6 -19 -9 -4 -26 -1
-37 7 -12 9 -34 12 -59 9 -25 -4 -39 -2 -39 6 0 16 99 14 129 -3z m3451 4 c0
-5 -7 -10 -15 -10 -8 0 -15 5 -15 10 0 6 7 10 15 10 8 0 15 -4 15 -10z m-4177
-7 c-7 -2 -19 -2 -25 0 -7 3 -2 5 12 5 14 0 19 -2 13 -5z m772 -2 c-3 -5 -1
-12 5 -16 6 -4 8 -11 4 -16 -3 -5 -10 -7 -15 -4 -13 8 -11 45 2 45 5 0 8 -4 4
-9z m3312 -7 c-3 -3 -12 -4 -19 -1 -8 3 -5 6 6 6 11 1 17 -2 13 -5z m59 -25
c19 -21 19 -21 -11 -17 -19 2 -31 10 -33 21 -5 24 21 22 44 -4z m-466 -5 c0
-2 -7 -4 -15 -4 -8 0 -15 4 -15 10 0 5 7 7 15 4 8 -4 15 -8 15 -10z m402 -6
c13 -7 25 -14 27 -15 1 -1 0 -7 -4 -13 -4 -7 -11 -8 -19 -1 -6 5 -33 15 -59
21 -26 7 -50 17 -54 23 -8 14 79 2 109 -15z m-4142 2 c-8 -5 -24 -10 -35 -10
-17 0 -17 2 -5 10 8 5 24 10 35 10 17 0 17 -2 5 -10z m940 0 c0 -5 -7 -10 -15
-10 -8 0 -15 5 -15 10 0 6 7 10 15 10 8 0 15 -4 15 -10z m254 4 c22 -9 20 -24
-3 -24 -21 0 -34 13 -24 24 8 7 8 7 27 0z m2860 -21 c12 5 16 3 12 -5 -3 -7
-9 -21 -12 -30 -8 -22 -33 -23 -40 -3 -4 8 -14 15 -24 15 -17 0 -17 2 3 24 19
21 23 22 33 8 7 -9 18 -13 28 -9z m216 17 c0 -5 -6 -10 -14 -10 -8 0 -18 5
-21 10 -3 6 3 10 14 10 12 0 21 -4 21 -10z m-2964 -14 c19 -14 19 -15 0 -22
-20 -8 -47 5 -54 24 -5 17 30 15 54 -2z m-478 -18 c10 -10 3 -15 -30 -25 -52
-15 -68 -16 -68 -3 0 11 49 39 71 40 8 0 20 -5 27 -12z m3564 -23 c4 -5 4 -13
1 -17 -2 -5 1 -15 7 -23 10 -13 8 -15 -14 -15 -17 0 -25 -4 -20 -11 4 -7 20
-8 41 -4 22 4 33 3 29 -3 -4 -6 3 -8 15 -5 16 4 18 8 7 14 -11 7 -10 11 2 19
9 6 18 6 24 0 6 -6 17 -10 26 -10 25 0 85 -41 71 -49 -6 -4 -9 -15 -5 -24 7
-19 39 -23 49 -7 3 6 11 10 17 10 6 0 5 -7 -3 -17 -8 -9 -12 -19 -9 -22 3 -3
-14 -7 -37 -8 -24 -2 -43 1 -43 6 0 6 -8 12 -19 16 -10 3 -28 14 -40 24 l-21
19 26 0 c26 0 52 17 42 27 -12 12 -88 -8 -88 -22 0 -12 -8 -14 -32 -9 -18 3
-46 2 -63 -3 l-30 -8 38 -16 c20 -9 37 -22 37 -29 0 -9 16 -13 55 -13 51 1 53
0 39 -16 -17 -19 -21 -14 46 -68 l25 -20 -23 -1 c-12 0 -25 7 -28 15 -4 8 -12
15 -19 15 -7 0 -18 -7 -25 -15 -10 -12 -10 -18 1 -31 12 -15 9 -16 -41 -9 -30
4 -66 15 -80 24 -14 10 -39 23 -56 30 -32 13 -95 65 -94 78 0 4 -8 9 -19 11
-13 2 -18 9 -14 18 3 8 -1 14 -11 14 -12 0 -15 6 -10 24 4 17 0 27 -12 34 -23
13 -30 82 -9 82 8 0 17 -4 20 -10 3 -5 15 -10 26 -10 10 0 19 5 19 10 0 6 -4
10 -10 10 -5 0 -10 5 -10 11 0 7 8 9 23 4 39 -12 129 -24 143 -18 8 3 14 12
14 20 0 13 2 13 18 2 9 -8 20 -18 24 -24z m-514 -3 c2 -7 -1 -12 -7 -12 -19 0
-60 23 -56 31 7 10 58 -5 63 -19z m-3628 -5 c0 -18 -8 -24 -45 -33 -25 -6 -45
-8 -45 -5 0 5 80 60 88 61 1 0 2 -10 2 -23z m2525 -8 c-10 -15 -25 -10 -19 6
4 8 10 12 15 9 5 -3 7 -10 4 -15z m995 -15 c0 -8 -5 -12 -10 -9 -6 4 -8 11 -5
16 9 14 15 11 15 -7z m-30 -4 c0 -5 -4 -10 -10 -10 -5 0 -10 5 -10 10 0 6 5
10 10 10 6 0 10 -4 10 -10z m90 -10 c0 -5 -4 -10 -10 -10 -5 0 -10 5 -10 10 0
6 5 10 10 10 6 0 10 -4 10 -10z m-75 -20 c3 -5 1 -10 -4 -10 -6 0 -11 5 -11
10 0 6 2 10 4 10 3 0 8 -4 11 -10z m-995 -21 c0 -5 -7 -9 -15 -9 -15 0 -20 12
-9 23 8 8 24 -1 24 -14z m1163 14 c4 -3 -5 -12 -19 -20 -33 -16 -34 -16 -34 1
0 8 -6 17 -12 19 -7 3 3 6 23 6 20 1 39 -2 42 -6z m-3693 -12 c0 -6 -4 -13
-10 -16 -5 -3 -10 1 -10 9 0 9 5 16 10 16 6 0 10 -4 10 -9z m340 0 c0 -13 -30
-22 -52 -15 -10 3 -26 0 -34 -7 -8 -6 -17 -9 -21 -5 -4 3 2 13 13 21 21 16 94
21 94 6z m3225 -1 c-3 -5 -10 -10 -16 -10 -5 0 -9 5 -9 10 0 6 7 10 16 10 8 0
12 -4 9 -10z m195 -20 c0 -5 -7 -10 -15 -10 -8 0 -15 -4 -15 -8 0 -16 13 -21
30 -12 14 7 19 5 23 -10 4 -14 0 -20 -13 -20 -10 0 -23 -6 -29 -14 -11 -13
-15 -12 -32 5 -10 10 -28 19 -39 19 -32 0 -12 29 26 36 19 3 34 10 34 15 0 5
7 9 15 9 8 0 15 -4 15 -10z m-3576 -21 c-8 -14 -34 -10 -34 5 0 9 7 12 20 9
11 -3 17 -9 14 -14z m-87 5 c-3 -3 -12 -4 -19 -1 -8 3 -5 6 6 6 11 1 17 -2 13
-5z m3739 -31 c-10 -10 -19 5 -10 18 6 11 8 11 12 0 2 -7 1 -15 -2 -18z m388
18 c3 -4 3 -11 0 -14 -8 -8 -34 3 -34 14 0 11 27 12 34 0z m284 -9 c2 -7 -2
-10 -12 -6 -9 3 -16 11 -16 16 0 13 23 5 28 -10z m-1020 -14 c-7 -19 -38 -22
-38 -4 0 10 9 16 21 16 12 0 19 -5 17 -12z m984 -13 c6 -13 19 -27 30 -30 17
-6 26 -35 10 -35 -16 0 -52 32 -52 46 0 8 -9 14 -20 14 -13 0 -18 5 -14 15 9
23 33 18 46 -10z m-892 -15 c0 -14 -14 -12 -28 2 -19 19 -14 30 8 18 11 -6 20
-15 20 -20z m-1275 10 c3 -5 -3 -10 -15 -10 -12 0 -18 5 -15 10 3 6 10 10 15
10 5 0 12 -4 15 -10z m-3305 -24 c0 -16 -54 -41 -70 -31 -6 4 -2 13 12 25 27
23 58 26 58 6z m-620 -16 c0 -5 -12 -10 -27 -10 -22 0 -25 2 -13 10 20 13 40
13 40 0z m5930 2 c0 -13 -12 -22 -22 -16 -10 6 -1 24 13 24 5 0 9 -4 9 -8z
m-5490 -17 c0 -8 -4 -15 -9 -15 -5 0 -11 7 -15 15 -3 9 0 15 9 15 8 0 15 -7
15 -15z m5620 5 c0 -5 -4 -10 -10 -10 -5 0 -10 5 -10 10 0 6 5 10 10 10 6 0
10 -4 10 -10z m-2263 -33 c-6 -20 -27 -19 -27 2 0 14 5 19 15 14 9 -3 14 -10
12 -16z m2240 -3 c-3 -3 -12 -4 -19 -1 -8 3 -5 6 6 6 11 1 17 -2 13 -5z
m-6212 -39 c-16 -13 -35 -23 -41 -20 -7 2 -22 -4 -35 -13 -24 -16 -24 -16 -5
6 10 11 31 24 47 27 16 4 31 11 34 16 4 5 12 9 18 9 7 0 -1 -11 -18 -25z m525
16 c0 -6 -10 -17 -22 -25 -22 -15 -22 -16 -2 -16 11 0 35 11 54 25 44 32 57
32 31 -1 -12 -15 -21 -35 -21 -44 0 -20 -23 -32 -43 -24 -13 5 -98 -36 -127
-61 -8 -7 -26 -16 -39 -20 -37 -11 -22 16 22 40 20 11 37 23 37 26 0 3 -12 11
-26 18 -34 15 -26 35 18 42 19 3 48 15 63 27 29 23 55 29 55 13z m5376 -16
c17 -16 16 -17 -21 -17 -50 0 -59 2 -49 11 5 5 18 11 29 14 11 3 21 5 23 6 2
0 10 -6 18 -14z m59 -25 c3 -5 -1 -10 -10 -10 -9 0 -13 5 -10 10 3 6 8 10 10
10 2 0 7 -4 10 -10z m-5687 -67 c-3 -24 0 -28 20 -26 12 2 22 -1 22 -7 0 -17
-146 -108 -157 -97 -2 3 10 20 28 38 28 28 30 34 16 37 -10 2 -24 -2 -32 -8
-12 -10 -15 -10 -15 1 1 21 25 49 43 49 26 0 47 11 47 26 0 8 7 14 15 14 11 0
15 -8 13 -27z m-450 3 c-7 -8 -17 -12 -22 -9 -4 3 -2 9 5 14 22 13 31 11 17
-5z m6682 4 c0 -5 -7 -10 -16 -10 -8 0 -12 5 -9 10 3 6 10 10 16 10 5 0 9 -4
9 -10z m45 -16 c-37 -19 -42 -18 -14 5 13 11 28 17 32 14 5 -3 -4 -11 -18 -19z
m-6630 -10 c14 -6 13 -8 -5 -21 -24 -17 -33 -13 -24 11 7 18 7 18 29 10z
m6890 -4 c3 -5 -1 -10 -10 -10 -9 0 -13 5 -10 10 3 6 8 10 10 10 2 0 7 -4 10
-10z m-158 -21 c1 -12 -3 -19 -10 -16 -17 5 -21 37 -5 37 8 0 14 -9 15 -21z
m-6679 -20 c-2 -6 -8 -10 -13 -10 -5 0 -11 4 -13 10 -2 6 4 11 13 11 9 0 15
-5 13 -11z m-323 -34 c-16 -14 -36 -25 -44 -25 -17 0 -11 7 26 31 41 26 53 22
18 -6z m295 5 c0 -10 -38 -1 -45 10 -2 4 7 5 20 2 14 -2 25 -8 25 -12z m6770
10 c0 -5 -4 -10 -10 -10 -5 0 -10 5 -10 10 0 6 5 10 10 10 6 0 10 -4 10 -10z
m-6920 -52 c0 -5 -11 -8 -25 -8 -14 0 -25 4 -25 9 0 5 11 8 25 7 14 0 25 -4
25 -8z m7075 -18 c3 -5 1 -10 -4 -10 -6 0 -11 5 -11 10 0 6 2 10 4 10 3 0 8
-4 11 -10z m-7330 -10 c3 -5 1 -10 -4 -10 -6 0 -11 5 -11 10 0 6 2 10 4 10 3
0 8 -4 11 -10z m268 -160 c-23 -22 -48 -40 -58 -40 -15 0 -16 2 -4 17 20 23
91 74 97 68 3 -2 -13 -23 -35 -45z m7497 40 c13 -8 13 -10 -2 -10 -9 0 -20 5
-23 10 -8 13 5 13 25 0z m-7870 -4 c0 -2 -7 -7 -16 -10 -8 -3 -12 -2 -9 4 6
10 25 14 25 6z m-150 -36 c0 -5 -8 -10 -17 -10 -15 0 -16 2 -3 10 19 12 20 12
20 0z m106 -45 c-15 -8 -36 -15 -45 -15 -9 0 -27 -9 -41 -20 -18 -14 -28 -16
-38 -8 -9 8 -16 8 -24 0 -7 -7 -19 -12 -27 -12 -11 0 -6 9 14 28 17 16 35 25
41 21 12 -10 54 0 54 12 0 5 21 9 48 9 l47 0 -29 -15z m-236 -50 c-23 -25 -40
-32 -40 -17 0 6 46 38 59 41 3 1 -6 -10 -19 -24z m530 1 c0 -2 -9 -6 -20 -9
-11 -3 -18 -1 -14 4 5 9 34 13 34 5z m-592 -63 c-9 -10 -13 -24 -11 -30 3 -8
-3 -13 -14 -13 -34 0 -34 13 -2 42 33 30 53 31 27 1z m487 -18 c-30 -24 -45
-31 -45 -19 0 11 45 43 60 44 9 0 3 -10 -15 -25z m-535 -40 c0 -8 -4 -15 -9
-15 -13 0 -22 16 -14 24 11 11 23 6 23 -9z"/>
<path d="M8940 3090 c0 -5 11 -10 25 -10 14 0 25 5 25 10 0 6 -11 10 -25 10
-14 0 -25 -4 -25 -10z"/>
<path d="M8865 3080 c-7 -11 19 -20 34 -10 9 5 7 9 -8 13 -12 3 -23 2 -26 -3z"/>
<path d="M9268 3083 c6 -2 18 -2 25 0 6 3 1 5 -13 5 -14 0 -19 -2 -12 -5z"/>
<path d="M8995 2991 c-10 -17 10 -20 35 -5 l25 13 -27 1 c-15 0 -29 -4 -33 -9z"/>
<path d="M9383 2993 c15 -2 37 -2 50 0 12 2 0 4 -28 4 -27 0 -38 -2 -22 -4z"/>
<path d="M8503 2953 c9 -2 25 -2 35 0 9 3 1 5 -18 5 -19 0 -27 -2 -17 -5z"/>
<path d="M9245 2955 c6 -2 36 -6 68 -10 43 -5 57 -10 57 -23 0 -12 3 -13 11
-5 7 7 9 19 6 27 -5 13 -22 16 -79 15 -40 0 -68 -2 -63 -4z"/>
<path d="M8125 2942 c-3 -3 -5 -9 -5 -14 0 -11 47 -10 54 1 6 9 -40 22 -49 13z"/>
<path d="M9600 2872 c0 -12 19 -26 26 -19 2 2 -2 10 -11 17 -9 8 -15 8 -15 2z"/>
<path d="M9200 2860 c-11 -6 -12 -12 -4 -20 13 -13 46 -2 41 13 -5 15 -20 18
-37 7z"/>
<path d="M9323 2858 c2 -7 10 -13 17 -13 7 0 15 6 18 13 2 7 -5 12 -18 12 -13
0 -20 -5 -17 -12z"/>
<path d="M8074 2820 c0 -13 4 -16 10 -10 7 7 7 13 0 20 -6 6 -10 3 -10 -10z"/>
<path d="M9387 2834 c-13 -13 -7 -24 14 -24 11 0 19 5 17 12 -5 14 -22 21 -31
12z"/>
<path d="M9475 2830 c-16 -7 -11 -9 22 -9 23 -1 45 4 48 9 8 12 -42 12 -70 0z"/>
<path d="M7805 2799 c-73 -24 -98 -44 -41 -33 22 4 51 13 65 20 14 8 36 14 49
14 12 0 22 5 22 10 0 14 -27 11 -95 -11z"/>
<path d="M7960 2811 c-22 -4 -30 -9 -23 -14 15 -9 63 2 63 14 0 5 -1 8 -2 8
-2 -1 -19 -4 -38 -8z"/>
<path d="M7538 2770 c-29 -8 -78 -40 -63 -40 18 0 130 33 140 41 11 11 -40 10
-77 -1z"/>
<path d="M8028 2773 c7 -3 16 -2 19 1 4 3 -2 6 -13 5 -11 0 -14 -3 -6 -6z"/>
<path d="M9286 2773 c-3 -3 -3 -10 0 -14 7 -12 34 -11 34 0 0 11 -26 22 -34
14z"/>
<path d="M7757 2743 c-14 -13 -6 -23 19 -23 22 0 25 2 14 15 -14 16 -23 19
-33 8z"/>
<path d="M9428 2723 c7 -3 16 -2 19 1 4 3 -2 6 -13 5 -11 0 -14 -3 -6 -6z"/>
<path d="M9705 2670 c-3 -5 1 -10 10 -10 9 0 13 5 10 10 -3 6 -8 10 -10 10 -2
0 -7 -4 -10 -10z"/>
<path d="M7475 2661 c-6 -5 -19 -12 -30 -15 -11 -3 -2 -3 20 0 43 6 73 24 39
24 -11 0 -24 -4 -29 -9z"/>
<path d="M7425 2561 c-10 -17 12 -21 25 -6 10 12 10 15 -3 15 -9 0 -18 -4 -22
-9z"/>
<path d="M6437 2327 c-3 -8 -30 -22 -61 -31 -33 -11 -56 -24 -56 -32 0 -17 -3
-17 40 -1 43 15 100 49 100 59 0 14 -18 18 -23 5z"/>
<path d="M11238 2903 c7 -3 16 -2 19 1 4 3 -2 6 -13 5 -11 0 -14 -3 -6 -6z"/>
<path d="M11303 2870 c27 -21 57 -27 57 -10 0 13 -34 30 -61 30 -21 0 -21 0 4
-20z"/>
<path d="M11600 2828 c0 -7 12 -18 26 -25 25 -12 25 -11 12 9 -18 26 -38 35
-38 16z"/>
<path d="M11040 2820 c0 -5 7 -10 15 -10 8 0 15 5 15 10 0 6 -7 10 -15 10 -8
0 -15 -4 -15 -10z"/>
<path d="M10502 2790 c10 -6 25 -7 40 -1 20 9 18 10 -17 10 -31 0 -36 -2 -23
-9z"/>
<path d="M9765 2780 c-3 -6 1 -7 9 -4 18 7 21 14 7 14 -6 0 -13 -4 -16 -10z"/>
<path d="M11930 2650 c0 -5 5 -10 10 -10 6 0 10 5 10 10 0 6 -4 10 -10 10 -5
0 -10 -4 -10 -10z"/>
<path d="M12143 2568 c2 -7 10 -13 17 -13 7 0 15 6 18 13 2 7 -5 12 -18 12
-13 0 -20 -5 -17 -12z"/>
<path d="M12225 2560 c4 -6 11 -8 16 -5 14 9 11 15 -7 15 -8 0 -12 -5 -9 -10z"/>
<path d="M12130 2465 c0 -8 4 -15 9 -15 5 0 11 7 15 15 3 9 0 15 -9 15 -8 0
-15 -7 -15 -15z"/>
<path d="M12160 2451 c0 -13 30 -24 75 -26 22 -1 51 -5 65 -9 25 -6 25 -6 3 5
-13 7 -23 18 -23 26 0 9 -16 13 -60 13 -33 0 -60 -4 -60 -9z"/>
<path d="M12326 2405 c-3 -8 -12 -15 -20 -15 -8 0 -18 -5 -22 -11 -5 -9 4 -10
32 -4 51 9 57 14 43 31 -15 18 -25 18 -33 -1z"/>
</g>
</svg>
